<?xml version="1.0" encoding="utf-8"?>
<svg viewBox="0.404 120.525 499.596 233.469" xmlns="http://www.w3.org/2000/svg">
  <g transform="matrix(0.10000000149011612, 0, 0, -0.10000000149011612, -751.644320710493, 1203.7277149436322)" fill="#35465f" stroke="none">
    <path d="M 10326.085 10710.213 C 10182.597 10693.738 10111.917 10668.23 9961.522 10580.543 L 9900.407 10544.406 L 9860.549 10549.188 C 9838.761 10551.314 9791.995 10553.44 9756.919 10552.909 C 9666.577 10552.909 9659.136 10550.251 9414.145 10436.524 C 9254.185 10362.124 9229.207 10354.684 9116.543 10350.432 C 9056.491 10348.306 9029.388 10349.901 8951.799 10361.592 C 8765.266 10389.227 8634.002 10392.416 8508.052 10372.753 C 8478.824 10367.97 8437.372 10362.124 8416.115 10359.467 C 8392.2 10356.278 8360.845 10347.244 8336.4 10336.084 C 8313.548 10325.987 8264.656 10305.26 8226.393 10290.381 C 8096.723 10237.769 8011.163 10193.66 8011.163 10178.248 C 8011.163 10163.368 8107.352 10181.968 8194.507 10213.854 C 8283.256 10246.803 8294.416 10251.586 8351.812 10286.129 C 8428.869 10332.363 8445.344 10335.553 8606.368 10335.021 C 8720.094 10335.021 8756.763 10332.896 8832.226 10321.735 C 8908.753 10311.106 8942.764 10308.981 9052.771 10308.981 C 9238.773 10309.512 9321.145 10325.455 9462.506 10388.695 C 9592.707 10447.153 9615.027 10456.188 9655.948 10468.41 C 9720.783 10487.011 9764.891 10490.199 9820.16 10479.039 C 9889.778 10465.222 9923.259 10468.942 9983.31 10498.171 C 10010.945 10511.456 10070.997 10544.406 10116.7 10570.445 C 10221.924 10631.029 10257.529 10642.189 10361.69 10645.377 C 10445.657 10648.035 10489.235 10642.72 10604.555 10616.149 C 10842.638 10561.943 10968.587 10519.959 11207.732 10416.33 C 11347.498 10355.747 11447.408 10323.861 11459.1 10335.021 C 11464.945 10341.398 11443.688 10354.153 11421.368 10357.873 C 11410.208 10359.467 11396.391 10364.782 11390.545 10369.564 C 11380.448 10377.535 11382.574 10378.067 11424.025 10376.473 C 11583.987 10370.627 11663.702 10323.329 11727.473 10197.38 C 11742.885 10166.025 11774.771 10132.014 11805.594 10112.35 C 11817.817 10104.91 11870.96 10074.619 11924.104 10044.858 C 11977.247 10015.098 12034.11 9982.15 12050.053 9971.521 C 12093.631 9941.761 12132.957 9900.309 12168.031 9846.634 C 12202.575 9793.491 12297.169 9609.615 12331.181 9528.837 C 12355.627 9471.442 12373.164 9410.859 12367.318 9405.013 C 12359.879 9397.573 12305.141 9414.579 12274.849 9434.242 C 12230.74 9462.94 12163.248 9557.534 12140.397 9621.838 C 12129.768 9652.129 12132.426 9671.262 12151.557 9696.77 C 12163.779 9713.775 12170.689 9745.13 12162.717 9750.445 C 12160.06 9752.039 12155.808 9747.256 12153.683 9738.753 C 12144.648 9703.147 12118.076 9696.239 12083.002 9721.747 C 12055.899 9740.879 12048.459 9755.228 12048.459 9783.925 L 12048.459 9806.245 L 12024.013 9809.434 C 11890.623 9826.971 11760.954 9879.583 11593.021 9984.807 C 11547.849 10012.972 11504.271 10039.544 11496.3 10043.796 C 11464.414 10060.27 11417.116 10067.711 11314.019 10073.025 C 11204.543 10077.807 11159.903 10084.185 11134.925 10096.939 C 11126.423 10101.19 11120.046 10102.785 11120.046 10100.659 C 11120.046 10098.533 11148.211 10039.544 11182.223 9969.395 C 11248.653 9833.348 11254.498 9812.622 11234.835 9783.393 C 11229.52 9774.89 11210.389 9762.668 11189.131 9752.571 C 11168.406 9743.537 11151.931 9734.502 11151.931 9732.376 C 11151.931 9730.782 11159.903 9729.187 11169.469 9729.187 C 11178.503 9729.187 11211.983 9727.061 11243.338 9724.404 C 11290.104 9721.216 11301.264 9718.559 11303.39 9711.118 C 11308.704 9694.644 11376.727 9634.592 11436.248 9593.14 C 11521.277 9534.683 11542.003 9514.488 11563.792 9470.38 C 11573.889 9449.123 11587.175 9424.145 11593.552 9415.111 L 11604.712 9397.573 L 11590.895 9397.573 C 11570.17 9397.573 11542.534 9384.819 11532.438 9370.47 C 11527.655 9363.562 11519.683 9344.962 11515.431 9330.081 C 11510.648 9314.669 11504.271 9301.916 11500.552 9301.916 C 11489.391 9301.916 11447.408 9331.145 11429.871 9351.338 C 11412.334 9371.001 11378.853 9436.368 11372.476 9462.94 C 11367.693 9482.071 11361.316 9481.008 11357.065 9461.345 C 11350.688 9428.928 11341.653 9434.773 11251.31 9522.991 C 11169.469 9603.238 11160.435 9610.678 11068.496 9667.541 C 11010.571 9703.147 10964.867 9735.565 10955.301 9747.256 C 10940.953 9764.793 10915.975 9809.965 10904.284 9841.32 C 10900.564 9851.948 10900.564 9851.948 10897.907 9841.32 C 10893.655 9821.657 10908.003 9774.89 10926.604 9750.976 C 10936.17 9737.69 10943.078 9727.061 10941.484 9727.061 C 10939.889 9727.061 10928.73 9732.908 10916.507 9739.816 C 10904.284 9747.256 10867.615 9761.605 10835.197 9772.233 C 10802.78 9782.331 10762.391 9799.336 10744.853 9809.965 C 10700.214 9836.537 10649.727 9888.086 10631.127 9926.349 C 10612.527 9964.081 10599.241 10038.482 10599.241 10105.973 L 10599.241 10152.208 L 10579.578 10152.208 C 10531.749 10152.739 10482.326 10188.877 10444.063 10251.586 C 10412.708 10302.072 10376.571 10333.427 10306.422 10369.564 C 10233.084 10407.295 10175.689 10408.89 10068.871 10377.535 C 10032.202 10366.907 10004.037 10363.187 9932.293 10359.467 C 9848.327 10354.684 9790.931 10345.118 9784.023 10333.427 C 9782.429 10331.301 9786.148 10314.827 9791.995 10297.821 C 9807.406 10254.774 9811.126 10188.877 9800.498 10151.677 C 9778.709 10077.807 9693.148 9976.835 9595.895 9910.937 C 9553.913 9882.772 9416.271 9816.343 9358.346 9797.211 C 9273.316 9768.514 9193.07 9756.29 9047.457 9750.976 C 9002.286 9749.382 8948.079 9746.725 8927.353 9745.13 L 8890.153 9742.473 L 8882.713 9722.81 C 8878.993 9712.182 8852.421 9655.319 8823.724 9596.861 C 8687.677 9319.452 8574.482 9181.28 8428.337 9115.914 C 8356.062 9083.496 8301.325 9077.119 8263.594 9096.782 C 8244.993 9106.88 8206.198 9107.942 8180.69 9098.908 C 8124.889 9080.308 8008.506 8981.461 7860.767 8827.878 C 7806.03 8771.013 7734.286 8701.928 7701.869 8674.293 C 7623.748 8608.927 7570.074 8557.909 7570.074 8548.874 C 7570.074 8536.121 7603.022 8541.435 7665.732 8563.755 C 7699.212 8575.978 7769.892 8599.892 7822.504 8617.43 C 8026.574 8684.921 8187.598 8738.596 8274.222 8768.888 C 8324.176 8785.894 8389.012 8805.557 8417.709 8812.466 C 8609.025 8856.574 8753.044 8927.255 9036.829 9115.914 C 9287.133 9282.252 9356.22 9318.39 9592.176 9407.139 C 9799.966 9485.26 9866.927 9516.614 9965.773 9583.575 C 10045.488 9637.25 10105.54 9693.05 10157.089 9761.073 C 10201.73 9820.594 10241.055 9861.515 10278.256 9886.492 C 10346.811 9933.789 10476.48 9976.303 10511.023 9963.018 C 10515.806 9961.424 10530.155 9943.355 10543.441 9923.161 C 10573.732 9878.52 10642.287 9813.685 10703.402 9772.233 C 10786.837 9715.901 10935.639 9646.284 11088.16 9592.078 C 11109.948 9584.637 11135.457 9573.478 11144.492 9568.163 C 11153.526 9562.318 11193.915 9521.398 11234.303 9476.226 C 11332.619 9367.282 11452.723 9248.241 11481.419 9231.234 C 11530.843 9202.537 11616.935 9188.188 11661.576 9200.943 C 11688.679 9208.383 11714.187 9228.046 11723.753 9248.241 C 11743.948 9290.224 11717.908 9393.853 11678.05 9432.116 C 11663.702 9445.933 11663.702 9446.465 11671.141 9470.911 C 11676.455 9488.979 11678.05 9508.643 11675.393 9544.249 C 11673.267 9570.82 11673.267 9600.58 11675.393 9610.678 L 11678.581 9629.278 L 11739.165 9570.289 L 11799.217 9511.831 L 11801.343 9470.911 C 11803.468 9435.305 11807.188 9423.613 11826.32 9386.413 C 11859.269 9323.704 11864.051 9306.167 11869.898 9235.486 C 11875.212 9163.743 11878.401 9156.302 11919.321 9127.605 C 11947.487 9106.88 11977.778 9102.628 11988.938 9117.508 C 11992.658 9122.291 11996.91 9138.766 11998.505 9153.645 C 12000.629 9169.057 12003.287 9182.343 12004.881 9183.938 C 12009.133 9188.72 12038.361 9158.428 12055.899 9130.794 C 12076.625 9098.908 12100.007 9084.028 12130.3 9084.028 C 12186.632 9084.028 12210.546 9123.354 12248.809 9278.001 C 12256.78 9310.418 12265.283 9339.647 12267.409 9343.367 C 12270.066 9348.15 12280.164 9347.619 12309.924 9341.772 C 12340.215 9335.395 12355.096 9334.864 12378.478 9339.115 C 12416.742 9346.024 12431.09 9355.59 12438.531 9381.099 C 12445.971 9407.139 12440.124 9427.333 12407.176 9484.197 C 12394.421 9507.048 12368.382 9560.192 12349.782 9602.706 C 12308.329 9698.365 12262.095 9786.583 12220.111 9851.417 C 12158.465 9946.543 12056.43 10027.853 11882.651 10120.853 C 11832.165 10147.957 11831.634 10148.488 11815.691 10183.031 C 11796.559 10226.077 11766.799 10265.403 11717.908 10314.295 C 11632.878 10399.324 11597.272 10416.862 11467.602 10435.993 C 11358.127 10451.936 11312.424 10466.284 11205.606 10516.239 C 11095.599 10567.788 11052.022 10582.669 10920.227 10611.898 C 10859.112 10625.715 10763.986 10650.161 10708.185 10666.104 C 10652.916 10681.515 10585.955 10697.99 10559.384 10702.242 C 10498.269 10712.338 10380.291 10716.059 10326.085 10710.213 Z M 11424.025 9763.199 C 11443.156 9755.759 11454.849 9747.787 11454.849 9742.473 C 11454.849 9737.69 11459.631 9720.153 11465.477 9703.147 C 11477.169 9669.667 11479.294 9642.033 11470.791 9642.033 C 11458.568 9642.033 11418.179 9691.456 11400.111 9728.656 C 11379.384 9769.576 11376.196 9783.393 11387.356 9778.611 C 11390.545 9776.485 11407.551 9770.107 11424.025 9763.199 Z M 12184.506 9415.111 L 12200.449 9398.105 L 12191.415 9340.179 C 12178.129 9257.275 12164.843 9200.412 12158.997 9199.88 C 12155.808 9199.348 12149.431 9207.32 12144.648 9217.417 C 12132.426 9240.269 12131.893 9298.195 12143.586 9350.807 C 12149.431 9377.379 12150.494 9401.294 12148.369 9426.802 L 12144.648 9464.002 L 12156.871 9448.059 C 12163.248 9439.025 12176.003 9424.676 12184.506 9415.111 Z M 11619.061 9352.401 C 11638.193 9342.836 11662.107 9314.669 11662.107 9302.447 C 11662.107 9289.692 11628.095 9247.178 11611.621 9238.144 C 11591.427 9226.984 11553.163 9247.178 11541.472 9273.749 C 11531.374 9298.195 11534.563 9335.395 11547.849 9349.744 C 11559.541 9362.498 11596.741 9364.093 11619.061 9352.401 Z" style=""/>
  </g>
</svg>