<?xml version="1.0" encoding="utf-8"?>
<svg viewBox="3.808 149.611 496.192 175.752" xmlns="http://www.w3.org/2000/svg">
  <g transform="matrix(0.1000000014901161, 0, 0, -0.1000000014901161, -751.644320710493, 1203.7277149436322)" fill="#35465f" stroke="none">
    <path d="M 8026.034 10468.732 C 8023.755 10467.022 7947.992 10463.035 7857.988 10460.757 C 7672.854 10456.199 7661.461 10453.92 7619.307 10411.198 C 7590.255 10381.006 7576.584 10350.245 7576.584 10311.509 C 7576.584 10273.343 7586.268 10260.811 7639.245 10232.899 C 7701.336 10199.289 7752.035 10189.606 7896.725 10181.061 C 8046.541 10172.516 8090.403 10161.693 8347.883 10065.423 L 8443.584 10029.535 L 8456.685 9997.634 C 8464.091 9979.976 8476.623 9956.051 8485.168 9945.228 C 8496.561 9929.847 8498.839 9924.15 8493.143 9921.873 C 8488.586 9920.733 8462.382 9911.049 8433.9 9901.365 C 8364.403 9877.44 8321.679 9854.654 8296.616 9830.159 L 8276.108 9809.082 L 8231.106 9822.184 C 8203.193 9830.159 8180.978 9833.577 8170.724 9830.729 C 8135.406 9822.184 8100.657 9760.663 8100.657 9705.976 C 8100.657 9691.736 8108.633 9665.532 8121.165 9637.049 C 8149.647 9573.249 8149.647 9575.528 8129.14 9545.907 C 8096.1 9497.486 8055.656 9411.47 8045.972 9367.608 C 8033.439 9311.782 8037.426 9224.056 8054.516 9175.637 C 8078.441 9107.279 8113.759 9074.809 8200.346 9040.631 C 8257.31 9018.415 8307.439 9016.137 8342.757 9034.365 C 8388.898 9058.86 8427.633 9113.546 8435.038 9164.244 C 8437.887 9187.599 8440.735 9191.587 8458.964 9198.993 C 8488.586 9211.525 8507.384 9231.463 8548.399 9292.414 C 8583.716 9345.961 8610.49 9376.722 8616.186 9371.025 C 8617.895 9369.316 8607.072 9318.618 8592.261 9257.666 C 8567.767 9156.839 8565.488 9140.888 8565.488 9075.949 C 8564.918 9012.148 8566.057 9001.895 8578.02 8980.249 C 8595.109 8948.349 8619.604 8933.538 8656.061 8933.538 C 8731.824 8934.108 8793.915 8999.617 8815.562 9102.723 C 8820.119 9123.799 8824.106 9154.56 8824.106 9171.079 C 8824.106 9206.967 8836.639 9223.487 8891.895 9262.223 C 8912.402 9277.034 8936.327 9294.693 8944.302 9302.098 C 8958.543 9315.2 8960.822 9315.2 8995.57 9310.074 C 9073.612 9297.541 9155.07 9293.554 9215.453 9299.25 C 9352.168 9311.782 9523.062 9371.595 9689.967 9465.587 C 9753.198 9501.474 9789.655 9511.158 9846.05 9507.74 C 9909.28 9503.753 9934.345 9488.372 10069.921 9373.304 C 10110.935 9338.555 10143.405 9316.909 10196.381 9290.135 C 10285.816 9245.134 10338.223 9226.335 10464.684 9195.575 C 10950.022 9077.658 10944.325 9079.367 11168.196 8970.565 C 11424.537 8845.812 11460.425 8837.838 11746.386 8845.812 C 12008.423 8853.218 12121.212 8851.509 12224.888 8837.838 C 12346.792 8821.318 12395.781 8817.9 12428.251 8822.457 C 12485.786 8830.432 12481.797 8845.243 12416.859 8864.042 C 12394.642 8870.308 12326.284 8889.105 12265.333 8905.056 C 12181.595 8927.272 12137.162 8942.082 12080.198 8968.286 C 11938.926 9034.365 11880.823 9052.594 11680.877 9096.456 C 11493.463 9136.901 11221.173 9205.828 11014.392 9263.932 C 10890.209 9299.25 10717.607 9367.038 10296.64 9545.907 C 10026.058 9660.975 10019.222 9663.822 9896.178 9699.71 C 9765.73 9737.877 9714.461 9757.245 9707.056 9770.916 C 9703.069 9778.321 9705.348 9788.005 9715.601 9807.374 C 9733.83 9841.552 9733.26 9847.818 9712.753 9891.681 C 9703.638 9911.049 9695.664 9931.556 9695.664 9936.683 C 9695.664 9948.646 9709.335 9960.038 9744.083 9977.697 C 9782.25 9996.496 9794.782 10011.876 9794.213 10036.94 C 9793.642 10047.764 9790.795 10059.726 9787.946 10062.574 C 9778.832 10071.689 9742.944 10051.182 9705.348 10015.294 C 9681.422 9991.939 9649.523 9970.861 9594.267 9941.81 C 9509.389 9896.808 9458.122 9863.768 9396.6 9813.64 C 9296.912 9733.32 9177.856 9708.825 9134.563 9760.663 C 9117.474 9781.17 9117.474 9782.309 9131.715 9810.791 C 9137.981 9823.324 9143.108 9834.147 9143.108 9835.856 C 9143.108 9836.995 9128.297 9830.729 9110.638 9821.614 C 9069.623 9800.538 8996.709 9789.144 8875.375 9784.588 C 8735.811 9779.46 8708.468 9769.777 8570.615 9679.773 C 8469.218 9613.124 8433.9 9596.035 8384.91 9588.061 C 8292.627 9573.249 8179.838 9619.96 8163.318 9679.773 C 8155.913 9705.407 8155.913 9719.648 8163.318 9719.648 C 8166.736 9719.648 8169.015 9716.23 8169.015 9711.673 C 8169.015 9698.571 8207.181 9669.519 8229.966 9664.393 C 8266.994 9656.417 8335.351 9659.835 8354.719 9670.089 C 8378.074 9682.052 8386.619 9705.976 8376.935 9729.332 C 8372.378 9739.016 8364.403 9749.84 8357.567 9753.258 C 8338.769 9763.511 8336.491 9760.093 8353.01 9745.282 C 8375.226 9724.206 8374.087 9700.281 8350.162 9684.9 C 8299.464 9653.569 8186.104 9698.571 8186.104 9750.409 C 8186.104 9774.334 8190.662 9788.005 8199.775 9788.005 C 8203.193 9788.005 8224.84 9780.031 8247.626 9770.347 C 8305.16 9746.421 8325.097 9748.7 8348.453 9781.739 C 8370.669 9813.64 8379.784 9817.058 8379.784 9794.272 C 8379.784 9754.966 8406.557 9719.648 8435.038 9719.648 C 8452.129 9719.648 8451.559 9721.927 8428.773 9753.258 C 8411.114 9777.752 8391.176 9812.5 8391.176 9818.766 C 8391.176 9824.463 8440.166 9850.097 8462.382 9855.794 C 8474.915 9859.212 8517.637 9865.477 8557.513 9870.604 C 8678.277 9885.415 8720.431 9904.213 8822.967 9989.66 C 8883.919 10039.788 8914.11 10059.726 8951.138 10074.537 C 8987.025 10088.209 8993.861 10097.323 8965.379 10091.627 C 8916.958 10083.081 8856.576 10052.89 8772.839 9996.496 L 8684.544 9937.252 L 8681.126 9959.469 C 8679.416 9971.432 8673.151 9986.242 8667.454 9993.078 C 8653.783 10008.458 8608.211 10021.56 8568.336 10021.56 L 8536.436 10022.13 L 8501.688 10077.386 C 8462.382 10139.476 8452.698 10167.389 8457.255 10199.289 C 8459.534 10211.252 8458.964 10220.936 8456.685 10220.936 C 8454.407 10220.936 8444.153 10213.531 8433.33 10203.847 C 8392.885 10168.528 8354.719 10174.225 8226.548 10234.607 C 8086.986 10300.686 8028.313 10314.357 7884.192 10314.927 C 7832.354 10314.927 7770.263 10311.509 7745.199 10307.522 C 7666.588 10294.989 7635.258 10313.788 7650.068 10363.347 C 7658.044 10390.69 7653.486 10388.981 7775.959 10400.374 C 7975.905 10418.033 8055.656 10421.451 8129.709 10414.616 C 8288.64 10400.374 8339.339 10387.272 8445.862 10332.017 C 8473.775 10317.775 8510.801 10303.534 8527.892 10300.686 C 8816.701 10251.696 8854.297 10251.127 8940.883 10290.433 C 9038.293 10335.435 9053.103 10336.574 9147.665 10309.231 C 9196.085 10295.56 9202.921 10294.989 9331.661 10296.129 L 9464.957 10297.838 L 9527.618 10279.61 C 9618.192 10252.836 9675.726 10247.709 9760.603 10258.532 C 9879.089 10274.482 9968.523 10263.659 10047.704 10224.354 C 10068.782 10213.531 10100.112 10200.998 10117.201 10195.871 C 10194.104 10174.225 10386.643 10163.972 10644.123 10167.959 C 10771.723 10170.238 10871.411 10169.098 10920.97 10164.541 C 11034.33 10154.857 11169.335 10164.541 11393.206 10197.58 C 11435.36 10203.847 11530.491 10212.961 11603.975 10218.087 C 11677.459 10222.644 11756.07 10230.62 11777.716 10235.177 C 11869.429 10254.545 11951.458 10287.015 11951.458 10303.534 C 11951.458 10325.751 11864.303 10319.485 11671.762 10283.597 C 11484.919 10249.418 11352.761 10228.341 11262.188 10217.518 C 11156.234 10205.555 10976.226 10208.973 10812.168 10226.633 C 10693.682 10239.165 10665.769 10239.734 10450.443 10228.91 C 10389.492 10226.063 10374.111 10227.202 10310.881 10240.873 C 10261.321 10251.696 10220.306 10256.824 10175.874 10257.393 L 10112.074 10258.532 L 10044.856 10292.142 C 9982.765 10323.472 9974.22 10325.751 9930.358 10328.029 C 9904.723 10329.738 9842.632 10326.32 9791.934 10320.624 C 9673.447 10307.522 9626.167 10310.94 9541.859 10337.143 C 9505.971 10348.537 9455.843 10362.208 9431.348 10367.334 C 9387.486 10376.449 9384.638 10376.449 9321.977 10363.917 C 9252.48 10349.676 9230.264 10350.245 9168.741 10369.044 C 9089.561 10392.969 9025.761 10388.981 8919.237 10353.663 C 8845.184 10328.599 8805.309 10326.32 8667.454 10339.422 C 8566.627 10349.106 8539.284 10355.942 8452.698 10394.108 C 8409.975 10412.906 8350.731 10433.413 8300.033 10445.946 C 8225.979 10465.314 8207.751 10467.593 8123.443 10469.87 C 8071.606 10471.58 8027.742 10471.01 8026.034 10468.732 Z M 8912.402 9635.91 C 8918.098 9611.416 8976.771 9559.578 9037.154 9525.969 C 9067.915 9508.88 9103.233 9486.094 9115.765 9475.27 C 9140.829 9453.624 9159.628 9418.875 9160.197 9393.811 C 9160.197 9380.709 9163.046 9377.861 9180.135 9374.443 C 9203.49 9370.456 9201.781 9364.759 9169.881 9348.239 C 9151.083 9338.555 9136.273 9336.277 9099.815 9336.277 C 9053.674 9336.277 9053.103 9336.847 8988.734 9371.595 C 8952.846 9391.532 8900.439 9421.723 8871.387 9439.383 C 8823.537 9469.005 8818.98 9473.561 8818.41 9489.512 C 8818.41 9514.576 8794.485 9558.439 8760.876 9596.035 C 8738.09 9621.669 8732.964 9630.784 8738.09 9635.91 C 8742.077 9640.467 8774.547 9643.885 8822.967 9646.164 C 8865.691 9647.873 8902.718 9649.582 8904.426 9650.151 C 8906.705 9650.722 8910.123 9644.455 8912.402 9635.91 Z M 8664.606 9588.63 C 8654.922 9565.275 8641.251 9539.071 8633.845 9528.817 C 8615.616 9504.891 8574.033 9483.815 8510.232 9465.587 C 8480.61 9457.042 8454.407 9448.497 8451.559 9445.648 C 8448.711 9443.37 8457.255 9431.407 8470.926 9419.446 C 8511.372 9382.988 8511.941 9364.19 8473.205 9318.618 C 8440.735 9280.452 8408.836 9258.805 8367.251 9246.273 C 8343.326 9238.868 8328.515 9231.463 8328.515 9226.335 C 8328.515 9221.778 8339.339 9206.398 8351.87 9192.726 C 8383.771 9157.979 8383.201 9143.737 8349.022 9111.837 C 8334.212 9098.165 8319.401 9079.367 8315.984 9069.683 C 8309.147 9049.746 8298.324 9050.315 8263.007 9070.822 C 8240.221 9084.494 8239.081 9087.911 8253.892 9108.989 C 8260.158 9117.533 8278.386 9158.548 8294.337 9200.701 C 8310.856 9242.855 8334.781 9299.25 8347.883 9326.023 C 8376.366 9382.988 8394.024 9431.977 8399.152 9470.713 C 8402 9488.372 8405.987 9497.486 8411.683 9497.486 C 8419.089 9497.486 8468.648 9521.982 8619.034 9601.732 C 8651.504 9619.391 8679.416 9633.062 8679.987 9631.923 C 8681.126 9630.784 8674.29 9611.416 8664.606 9588.63 Z M 8275.538 9567.552 L 8317.123 9557.868 L 8313.705 9537.361 C 8295.476 9436.535 8265.285 9361.911 8226.548 9321.466 C 8204.902 9299.25 8203.193 9294.693 8203.193 9265.071 C 8202.624 9221.778 8189.522 9150.572 8178.129 9127.786 C 8166.736 9106.14 8142.241 9092.469 8135.406 9103.862 C 8125.722 9119.812 8114.899 9219.5 8114.899 9295.262 L 8114.899 9375.013 L 8135.406 9418.306 C 8146.798 9442.23 8170.724 9482.676 8188.383 9508.309 C 8206.041 9533.944 8220.283 9560.147 8220.283 9566.414 C 8220.283 9579.515 8223.131 9579.515 8275.538 9567.552 Z M 8788.789 9418.875 C 8813.283 9406.344 8829.803 9394.95 8829.803 9389.824 C 8829.234 9375.013 8808.727 9333.999 8783.662 9297.541 C 8750.622 9250.831 8654.922 9175.068 8642.959 9186.46 C 8638.402 9191.018 8654.353 9245.134 8691.379 9353.936 C 8727.837 9459.89 8718.722 9454.193 8788.789 9418.875 Z M 8730.115 9095.887 C 8729.546 9027.529 8708.468 9001.895 8652.074 9001.895 C 8632.136 9001.895 8629.288 9004.174 8621.313 9021.833 C 8612.768 9042.341 8611.06 9075.949 8616.755 9111.267 L 8620.174 9132.344 L 8666.885 9134.622 C 8691.949 9135.762 8717.014 9136.332 8721.57 9135.762 C 8728.406 9135.762 8730.115 9127.217 8730.115 9095.887 Z" style=""/>
  </g>
</svg>